<svg width="28" height="28" viewBox="0 0 28 28" fill="none" xmlns="http://www.w3.org/2000/svg">
<circle cx="14" cy="14" r="14" fill="#7DD585" fill-opacity="0.76"/>
<mask id="mask0_658_607" style="mask-type:alpha" maskUnits="userSpaceOnUse" x="0" y="0" width="28" height="28">
<circle cx="14" cy="14" r="14" fill="#70FE7E"/>
</mask>
<g mask="url(#mask0_658_607)">
<g filter="url(#filter0_b_658_607)">
<path d="M13.9804 0C6.25852 0 0 6.00913 0 13.7633C0 17.5 1.17592 20.389 3.14886 22.8819L3.67149 20.7827L4.65142 15.7313C4.65142 15.7313 4.71675 15.3639 4.82128 14.8129C4.53383 14.0519 4.31171 13.1466 4.55996 12.5562C4.75595 12.097 5.06953 11.8477 5.39617 11.7165C5.42231 11.559 5.4615 11.4016 5.48763 11.2442C5.48763 11.2442 5.82734 10.024 7.00327 8.6988C7.05553 8.64632 7.10779 8.58072 7.16006 8.52824H7.17312C7.23845 8.46264 7.30378 8.39703 7.36911 8.33143C7.40831 8.30519 7.43444 8.26583 7.46057 8.23959C8.32291 7.37364 9.66869 6.79635 11.4587 6.52082C12.2165 6.40274 13.0658 6.35026 13.9673 6.35026C13.9804 6.35026 13.9935 6.35026 14.0065 6.35026C14.0196 6.35026 14.0327 6.35026 14.0457 6.35026C14.9473 6.35026 15.7965 6.40274 16.5544 6.52082C18.3444 6.79635 19.6902 7.37364 20.5525 8.23959C20.5786 8.26583 20.6178 8.29207 20.644 8.33143C20.7093 8.38391 20.7746 8.44952 20.8399 8.52824H20.853C20.9053 8.58072 20.9575 8.64632 21.0098 8.6988C22.1857 10.024 22.5254 11.2442 22.5254 11.2442C22.5516 11.3885 22.5777 11.5459 22.6169 11.7165C22.9435 11.8477 23.2702 12.0839 23.4531 12.5562C23.7014 13.1466 23.4792 14.0519 23.1918 14.8129C23.2963 15.3639 23.3616 15.7313 23.3616 15.7313L24.3416 20.7827L24.7858 23C26.7979 20.5727 28 17.4501 28 14.0388C28 6 21.7154 0 13.9804 0Z" fill="url(#paint0_linear_658_607)"/>
</g>
</g>
<path d="M12.1091 18.9423C12.7682 18.7051 13.4141 18.6392 13.9941 18.6523C14.5609 18.6392 15.22 18.7183 15.8791 18.9423C15.8395 18.9028 15.1804 18.336 14.1918 18.2833V17.6505H14.3236C14.6136 17.6374 14.8773 17.5056 15.0486 17.2946L15.4309 16.8201C15.5627 16.6487 15.51 16.3983 15.2859 16.3192C15.2463 16.306 15.2068 16.2928 15.1541 16.2928H12.8341C12.7946 16.2928 12.7418 16.306 12.7023 16.3192C12.4782 16.3983 12.4255 16.6487 12.5573 16.8201L12.9396 17.2946C13.1109 17.5056 13.3746 17.6374 13.6646 17.6505H13.8096V18.2833C12.8078 18.3492 12.1487 18.916 12.1091 18.9423Z" fill="white"/>
<path d="M21.4284 10.9653C21.4152 10.9521 21.4152 10.9389 21.4152 10.9257C21.402 10.8993 21.402 10.8862 21.3888 10.873C21.0593 10.2535 20.7034 9.72619 20.3079 9.26483C20.2552 9.19893 20.1498 9.10666 20.0707 9.02757C20.0311 8.98802 20.0048 8.96166 19.9652 8.92211C19.2402 8.19713 18.0144 7.68305 16.4194 7.44578C15.6944 7.34032 14.8903 7.2876 14.0203 7.2876H13.9544C13.0844 7.2876 12.2804 7.34032 11.5554 7.44578C9.96041 7.68305 8.73452 8.19713 8.00954 8.92211C7.98317 8.96166 7.94363 8.98802 7.90408 9.02757C7.82499 9.10666 7.71954 9.21211 7.66681 9.26483C7.27137 9.71301 6.91547 10.2535 6.58593 10.873C6.57274 10.8862 6.57274 10.9125 6.55956 10.9257C6.54638 10.9389 6.54638 10.9521 6.54638 10.9653C6.52002 11.0312 6.50684 11.1103 6.50684 11.1103C6.50684 11.1366 6.50684 11.163 6.50684 11.1893V11.2025C6.50684 11.2421 6.50684 11.2684 6.52002 11.2948C6.52002 11.3212 6.52002 11.3343 6.5332 11.3607C6.5332 11.3739 6.5332 11.3871 6.54638 11.4134C6.55956 11.4398 6.55956 11.4662 6.57274 11.4925C6.58593 11.5057 6.58593 11.5189 6.58593 11.5189C6.59911 11.5452 6.62547 11.5848 6.63865 11.6112C6.65183 11.6375 6.6782 11.6639 6.69138 11.6771L6.70456 11.6902C6.73092 11.7166 6.75729 11.743 6.75729 11.743C6.77047 11.7562 6.78365 11.7562 6.78365 11.7562C6.79683 11.7693 6.81001 11.7693 6.81001 11.7825C6.83638 11.8089 6.87592 11.8221 6.90228 11.8352C6.90228 11.8352 6.91546 11.8484 6.92865 11.8484C7.245 11.9802 7.50864 11.8221 7.50864 11.8221C7.535 11.8089 7.56136 11.7957 7.58773 11.7825C8.15453 11.4002 8.83998 11.1893 9.57814 11.1893C10.1186 11.1893 10.6327 11.308 11.1204 11.5321C11.6081 11.7562 12.0299 12.1121 12.5176 12.3361C12.8999 12.5075 13.3085 12.6261 13.7172 12.6261C13.7172 12.6261 13.8226 12.6261 13.9412 12.6261C13.9544 12.6261 13.9676 12.6261 13.9808 12.6261C13.994 12.6261 14.0072 12.6261 14.0203 12.6261C14.1522 12.6261 14.2444 12.6261 14.2444 12.6261C14.6662 12.6261 15.0617 12.5075 15.4439 12.3361C15.9317 12.1121 16.3535 11.7562 16.8412 11.5321C17.3289 11.308 17.8562 11.1893 18.3834 11.1893C19.1216 11.1893 19.807 11.4134 20.3739 11.7825C20.4002 11.7957 20.4266 11.8089 20.4529 11.8221C20.4529 11.8221 20.7166 11.9802 21.0329 11.8484C21.0461 11.8484 21.0461 11.8484 21.0593 11.8352C21.0857 11.8221 21.1252 11.8089 21.1516 11.7825C21.1647 11.7693 21.1779 11.7693 21.1779 11.7562C21.1911 11.743 21.2043 11.743 21.2043 11.743C21.2043 11.743 21.2307 11.7298 21.257 11.6902C21.257 11.6902 21.257 11.6771 21.2702 11.6771C21.2834 11.6639 21.3097 11.6375 21.3229 11.6112C21.3493 11.5848 21.3625 11.5584 21.3757 11.5189C21.3757 11.5057 21.3888 11.4925 21.3888 11.4925C21.402 11.4662 21.402 11.4398 21.4152 11.4134C21.4152 11.4002 21.4284 11.3871 21.4284 11.3607C21.4416 11.3343 21.4416 11.3212 21.4416 11.2948C21.4416 11.2684 21.4547 11.2289 21.4547 11.2025V11.1893C21.4547 11.163 21.4547 11.1366 21.4547 11.1103C21.4811 11.1103 21.4547 11.0312 21.4284 10.9653Z" fill="white"/>
<path d="M19.173 14.1047C18.6984 13.907 18.1843 13.8938 17.6966 14.1047C17.2221 14.3156 16.8794 14.711 16.6948 15.1856C17.1694 15.3833 17.6834 15.3965 18.1712 15.1856C18.6589 14.9747 19.0016 14.5792 19.173 14.1047Z" fill="white"/>
<path d="M21.322 12.338L21.5593 13.3002L22.0075 15.8443C22.0075 15.8443 23.0224 13.9593 22.6665 13.0498C22.3106 12.1403 21.322 12.338 21.322 12.338Z" fill="white"/>
<path d="M5.30737 13.0498C4.95146 13.9593 5.96644 15.8443 5.96644 15.8443L6.41462 13.3002L6.65189 12.338C6.65189 12.338 5.66327 12.1403 5.30737 13.0498Z" fill="white"/>
<path d="M10.2759 14.1047C9.80136 13.8938 9.2741 13.907 8.79956 14.1047C8.97092 14.5792 9.31364 14.9747 9.80136 15.1856C10.2759 15.3965 10.8032 15.3833 11.2777 15.1856C11.0932 14.711 10.7504 14.3156 10.2759 14.1047Z" fill="white"/>
<defs>
<filter id="filter0_b_658_607" x="-4" y="-4" width="36" height="31" filterUnits="userSpaceOnUse" color-interpolation-filters="sRGB">
<feFlood flood-opacity="0" result="BackgroundImageFix"/>
<feGaussianBlur in="BackgroundImage" stdDeviation="2"/>
<feComposite in2="SourceAlpha" operator="in" result="effect1_backgroundBlur_658_607"/>
<feBlend mode="normal" in="SourceGraphic" in2="effect1_backgroundBlur_658_607" result="shape"/>
</filter>
<linearGradient id="paint0_linear_658_607" x1="3.18182" y1="23" x2="34.0948" y2="0.829307" gradientUnits="userSpaceOnUse">
<stop stop-color="#262626"/>
<stop offset="0.780198" stop-color="#5A8F8A"/>
<stop offset="1" stop-color="white"/>
</linearGradient>
</defs>
</svg>
